<svg width="24" height="24" viewBox="0 0 24 24" fill="none" xmlns="http://www.w3.org/2000/svg">
<path fill-rule="evenodd" clip-rule="evenodd" d="M12 22C17.5228 22 22 17.5228 22 12C22 6.47715 17.5228 2 12 2C6.47715 2 2 6.47715 2 12C2 17.5228 6.47715 22 12 22ZM13.1408 14.3001L13.3743 6H10.6081L10.8416 14.3001H13.1408ZM12.0092 15.266C11.1649 15.2578 10.4824 15.8718 10.5003 16.6248C10.4824 17.3861 11.1649 18 12.0092 18C12.8085 18 13.5 17.3861 13.5 16.6248C13.5 15.8718 12.8085 15.2578 12.0092 15.266Z" fill="#FFDF6B"/>
</svg>
