<svg width="18" height="18" viewBox="0 0 18 18" fill="none" xmlns="http://www.w3.org/2000/svg">
<rect x="8.375" y="1.5" width="1.25" height="5" fill="#B8B8BE"/>
<rect x="8.375" y="11.5" width="1.25" height="5" fill="#B8B8BE"/>
<rect x="16.5" y="8.375" width="1.25" height="5" transform="rotate(90 16.5 8.375)" fill="#B8B8BE"/>
<rect x="6.5" y="8.375" width="1.25" height="5" transform="rotate(90 6.5 8.375)" fill="#B8B8BE"/>
<path fill-rule="evenodd" clip-rule="evenodd" d="M9 13.375C11.4162 13.375 13.375 11.4162 13.375 9C13.375 6.58375 11.4162 4.625 9 4.625C6.58375 4.625 4.625 6.58375 4.625 9C4.625 11.4162 6.58375 13.375 9 13.375ZM9 14.625C12.1066 14.625 14.625 12.1066 14.625 9C14.625 5.8934 12.1066 3.375 9 3.375C5.8934 3.375 3.375 5.8934 3.375 9C3.375 12.1066 5.8934 14.625 9 14.625Z" fill="#B8B8BE"/>
</svg>
